<svg xmlns="http://www.w3.org/2000/svg" width="10.704" height="15.155" viewBox="0 0 10.704 15.155"><defs><style>.winddirection{fill:#959595;}</style></defs><path class="winddirection" d="M830.349,280.159a1.093,1.093,0,0,0-.035-.169c-.156-.449-.313-.9-.474-1.346q-2.25-6.25-4.5-12.5c-.108-.3-.225-.619-.61-.608-.364.01-.478.313-.574.61q-2.211,6.8-4.425,13.6c-.141.434-.108.719.119.849.331.19.57-.024.809-.212l3.755-2.961c.309-.243.392-.243.717-.01q2.071,1.491,4.142,2.981a2.232,2.232,0,0,0,.394.245A.475.475,0,0,0,830.349,280.159Z" transform="translate(-819.645 -265.535)"/></svg>